<?xml version="1.0" encoding="iso-8859-1"?>
<!-- Uploaded to: SVG Repo, www.svgrepo.com, Generator: SVG Repo Mixer Tools -->
<!DOCTYPE svg PUBLIC "-//W3C//DTD SVG 1.1//EN" "http://www.w3.org/Graphics/SVG/1.1/DTD/svg11.dtd">
<svg fill="#000000" height="800px" width="800px" version="1.1" id="Capa_1" xmlns="http://www.w3.org/2000/svg" xmlns:xlink="http://www.w3.org/1999/xlink" 
	 viewBox="0 0 461.469 461.469" xml:space="preserve">
<g>
	<path d="M397.421,84.173H64.047c-4.142,0-7.5,3.358-7.5,7.5v227.575c0,4.142,3.358,7.5,7.5,7.5h333.374c4.143,0,7.5-3.358,7.5-7.5
		V91.673C404.921,87.531,401.564,84.173,397.421,84.173z M389.921,311.748H71.547V99.173h318.374V311.748z"/>
	<path d="M369.478,293.404c4.143,0,7.5-3.358,7.5-7.5V143.271c0-4.142-3.357-7.5-7.5-7.5s-7.5,3.358-7.5,7.5v142.634
		C361.978,290.046,365.335,293.404,369.478,293.404z"/>
	<path d="M362.547,123.043c2.017,4.764,8.54,6.232,12.23,2.43c4.181-4.065,1.934-11.35-3.653-12.618
		C365.215,111.513,360.394,117.53,362.547,123.043C362.738,123.493,362.368,122.583,362.547,123.043z"/>
	<path d="M453.969,339.301h-21.494V85.188c0-15.752-12.815-28.568-28.568-28.568H57.563c-15.752,0-28.568,12.815-28.568,28.568
		v254.114H7.5c-4.142,0-7.5,3.358-7.5,7.5v22.539c0,19.58,15.93,35.51,35.51,35.51h390.45c19.58,0,35.51-15.93,35.51-35.51v-22.539
		C461.469,342.659,458.112,339.301,453.969,339.301z M43.994,85.188c0-7.481,6.087-13.568,13.568-13.568h346.344
		c7.481,0,13.568,6.086,13.568,13.568v254.114H43.994V85.188z M265.775,354.301c-2.819,5.93-8.851,10.049-15.842,10.049h-38.396
		c-6.991,0-13.023-4.119-15.843-10.049H265.775z M446.469,369.34c0,11.309-9.2,20.51-20.51,20.51H35.51
		c-11.309,0-20.51-9.201-20.51-20.51v-15.039h164.869c3.397,14.343,16.301,25.049,31.668,25.049h38.396
		c15.366,0,28.27-10.707,31.667-25.049h164.869V369.34z"/>
</g>
</svg>