<?xml version="1.0" encoding="iso-8859-1"?>
<!-- Uploaded to: SVG Repo, www.svgrepo.com, Generator: SVG Repo Mixer Tools -->
<svg fill="#000000" height="800px" width="800px" version="1.1" id="Layer_1" xmlns="http://www.w3.org/2000/svg" xmlns:xlink="http://www.w3.org/1999/xlink" 
	 viewBox="0 0 512 512" xml:space="preserve">
<g>
	<g>
		<path d="M280.069,0C175.516,0,90.294,84.355,88.886,188.58L40.731,327.056h48.137v103.184h93.414V512h219.545h0.001V338.607
			c20.245-16.76,37.064-37.758,48.903-61.125c13.628-26.901,20.538-55.929,20.538-86.282C471.269,85.773,385.497,0,280.069,0z
			 M377.403,319.171l-5.992,4.565v157.847H212.7v-81.759h-93.414V296.639H83.512l35.774-102.87V191.2
			c0-88.655,72.127-160.782,160.783-160.782S440.851,102.545,440.852,191.2C440.852,241.806,417.726,288.45,377.403,319.171z"/>
	</g>
</g>
<g>
	<g>
		<path d="M282.774,50.72c-26.336-0.489-52.14,6.356-74.649,19.824c-23.038,13.785-36.726,38.082-36.616,64.994
			c0.111,27.064,14.093,51.396,37.405,65.087l97.618,57.337c11.956,7.022,25.162,10.541,38.398,10.541
			c12.589,0,25.205-3.186,36.782-9.57c23.44-12.924,37.94-36.526,38.79-63.137c0.036-1.162,0.06-2.327,0.069-3.494v-0.008
			C421.15,115.679,359.335,52.171,282.774,50.72z M390.098,194.825c-0.504,15.773-9.13,29.781-23.076,37.47
			c-14.252,7.859-31.107,7.649-45.086-0.563l-97.618-57.336c-13.955-8.196-22.327-22.769-22.393-38.983
			c-0.066-16.06,8.09-30.553,21.817-38.767c17.018-10.183,36.458-15.534,56.355-15.534c0.7,0,1.4,0.007,2.1,0.019
			c59.982,1.137,108.411,50.9,107.956,110.931C390.145,192.986,390.127,193.908,390.098,194.825z"/>
	</g>
</g>
</svg>